<?xml version="1.0" encoding="UTF-8" standalone="no"?>
<!-- Created with Inkscape (http://www.inkscape.org/) -->

<svg
   xmlns:dc="http://purl.org/dc/elements/1.1/"
   xmlns:cc="http://creativecommons.org/ns#"
   xmlns:rdf="http://www.w3.org/1999/02/22-rdf-syntax-ns#"
   xmlns:svg="http://www.w3.org/2000/svg"
   xmlns="http://www.w3.org/2000/svg"
   xmlns:sodipodi="http://sodipodi.sourceforge.net/DTD/sodipodi-0.dtd"
   xmlns:inkscape="http://www.inkscape.org/namespaces/inkscape"
   version="1.1"
   id="svg2"
   xml:space="preserve"
   width="300"
   height="300"
   viewBox="0 0 300 299.99999"
   sodipodi:docname="logo_rabe_sw.svg"
   inkscape:version="0.92.4 (unknown)"
   inkscape:export-filename="/home/marco/rabe/logo_rabe_sw.png"
   inkscape:export-xdpi="96"
   inkscape:export-ydpi="96"><metadata
     id="metadata8"><rdf:RDF><cc:Work
         rdf:about=""><dc:format>image/svg+xml</dc:format><dc:type
           rdf:resource="http://purl.org/dc/dcmitype/StillImage" /><dc:title></dc:title></cc:Work></rdf:RDF></metadata><defs
     id="defs6" /><sodipodi:namedview
     pagecolor="#ffffff"
     bordercolor="#666666"
     borderopacity="1"
     objecttolerance="10"
     gridtolerance="10"
     guidetolerance="10"
     inkscape:pageopacity="0"
     inkscape:pageshadow="2"
     inkscape:window-width="1920"
     inkscape:window-height="1136"
     id="namedview4"
     showgrid="false"
     inkscape:zoom="0.71237917"
     inkscape:cx="291.65683"
     inkscape:cy="122.04976"
     inkscape:window-x="0"
     inkscape:window-y="27"
     inkscape:window-maximized="1"
     inkscape:current-layer="g12"
     fit-margin-top="0"
     fit-margin-left="-0.5"
     fit-margin-right="0"
     fit-margin-bottom="0" /><g
     id="g10"
     inkscape:groupmode="layer"
     inkscape:label="ink_ext_XXXXXX"
     transform="matrix(1.3333333,0,0,-1.3333333,-270.88774,488.82737)"><g
       id="g12"
       transform="scale(0.1)"><path
         d="m 2357.56,2938.93 21.22,246.51 181.2,57.13 195.9,57.14 253.03,48.97 124.07,-50.61 -32.65,-32.64 -427.71,-208.96 -315.06,-117.54"
         style="fill:#ffffff;fill-opacity:1;fill-rule:nonzero;stroke:none"
         id="path14"
         inkscape:connector-curvature="0" /><path
         d="m 2785.7106,1416.9282 -14.2606,123.6818 35.46,219.4 41.37,53.34 c 20.2,-4.22 44.43,-8.06 73.49,-10.96 l 5.82,-28 13.48,-64.79 -56.0992,-293.3943 M 2749.45,3231.24 l 0.16,0.37 49.03,47.88 -36.07,-7.22 1.85,21.83 c 0,0 212.05,45.72 246.27,43.34 34.2,-2.31 115.3,-40.39 115.3,-40.39 0,0 -78.56,-6.38 -131.78,-18.12 -53.2,-11.81 -74.52,-28.54 -139.82,-54.44 -65.36,-25.86 -121.57,-49.08 -104.94,6.75 z m -68.86,-30.86 -38.98,-14.91 c -7.99,4.33 -13.88,12.29 -14.61,21.91 -0.14,1.05 -0.14,1.87 -0.14,2.57 0,14.16 10.8,26.28 25.18,27.54 0.97,0.15 1.87,0.15 2.61,0.15 14.08,0 26.31,-10.81 27.59,-25.27 0,-0.85 0.13,-1.71 0.13,-2.53 0,-3.32 -0.66,-6.48 -1.78,-9.46 z M 2490.54,3248 c -25.13,34.51 -60.6,53.96 -106.74,47.44 -1.57,4.44 -3.06,8.91 -4.55,13.31 -15.28,45.01 -26.68,91.45 -26.3,114.55 -0.08,3.65 0.22,6.56 0.59,8.35 0.3,1.86 0.53,2.23 0.45,2.27 0.98,1.83 2.46,4.36 11.03,7.76 8.2,3.09 21.91,5.28 38.31,5.21 48.09,0.3 117.01,-17.81 155.7,-35.03 10.5,-4.62 18.78,-12.56 26.52,-25.31 11.49,-18.85 19.01,-47.62 23.78,-75.12 0.84,-4.48 1.5,-8.72 2.16,-13.12 -42.41,-12.34 -82.8,-26.42 -120.95,-50.31 z m -9.85,-159.8 c -14.76,-49.86 -54.84,-69.54 -64.39,-68.63 -9.54,0.85 -0.46,7.18 -0.46,7.18 9.04,6.49 30.19,36.82 39.8,68.28 9.61,31.41 9.33,81.57 9.33,88.5 0,5.63 1.34,10.54 6.41,1.42 4.83,-8.72 23.09,-49.53 9.31,-96.75 z m 1635.16,-1452.44 -901.09,697.21 c 22.36,-7.98 46.8,-16.39 73.78,-25.04 -14.98,47.56 -47.63,96.96 -89.36,145.04 17.59,-6.15 36.29,-12.52 56.51,-19.01 -56.88,180.74 -367.6,387.04 -469.86,450.92 l -18.34,195.28 c 25.57,11.63 185.36,84.44 165.02,76.39 38.53,17.29 162.48,77.33 224.49,148.1 -113.88,51.05 -144.29,59.99 -192.52,50.68 -44.94,-8.64 -197.89,-35.37 -219.27,-39.09 -1.86,1.6 -19.23,15.16 -57.98,3.61 -3.66,-1.12 -7.32,-2.12 -10.89,-3.16 -3.65,21.9 -8.8,46.99 -17.8,71.54 -12.23,32.84 -33.33,67.57 -72.68,84.93 -47.93,20.72 -119.71,40.36 -182.53,40.66 -21.54,-0.04 -42.26,-2.27 -61.64,-9.43 -19.15,-6.93 -38.46,-20.57 -48.45,-42.41 -6.03,-13.22 -7.15,-25.79 -7.23,-38.68 0.45,-43.52 16.92,-99.16 35.47,-152.12 -48.66,-34.32 -64.22,-97.04 -46.79,-163.34 9.46,-35.99 27.05,-67.11 50.76,-89.25 -15.59,-41.1 -30.26,-88.5 -44.05,-143.89 -103.53,-416.89 7.53,-687.4 191.1,-857.52 58.88,-54.56 126.17,-94.35 186.77,-122.67 6.86,-17.68 16.33,-38.92 29.6,-62.7 19.81,-35.62 45.67,-60.84 65.8,-76.83 l -40.17,-248.45 -63.7293,-89.6221 134.9399,0.02 99.2602,-0.7225 c 0,0 61.6056,0.5141 122.1465,0.1906 -20.0883,32.3967 -51.6573,82.5337 -51.6573,82.5337 l 35.77,202.53 38.7,48.57 37.47,46.91 c 12.82,0.15 26.09,0.46 40.03,0.93 149.82,5.14 298.94,-39.9 428.34,-96.12 10.06,-5.29 377.79,-197.45 403.27,-214.81 25.81,-17.6 90.73,-15.16 71.05,22.75 70.2,-11.06 116.35,3.92 93.9,48.24 119.11,-0.25 11.86,77.83 11.86,77.83"
         style="fill:#231f20;fill-opacity:1;fill-rule:nonzero;stroke:none"
         id="path16"
         inkscape:connector-curvature="0"
         sodipodi:nodetypes="cccccccccccccccccccccscscsccccccccccccccccccscccccccccccccccccccccccccccccccccccccccccccc" /></g></g></svg>